<svg viewBox="0 0 1024 1024" width="200" height="200" xmlns="http://www.w3.org/2000/svg" fill="currentColor">
								<path d="M512 0C229.23 0 0 229.23 0 512c0 226.09 146.51 417.55 349.63 485.56 25.56 4.71 34.95-11.11 34.95-24.71 0-12.27-.48-52.87-.73-95.91-142.23 30.91-172.21-61.43-172.21-61.43-23.25-59.06-56.71-74.76-56.71-74.76-46.41-31.71 3.51-31.07 3.51-31.07 51.36 3.62 78.42 52.77 78.42 52.77 45.62 78.21 119.72 55.6 148.99 42.52 4.64-33.04 17.86-55.6 32.49-68.38-113.54-12.92-233.06-56.77-233.06-252.65 0-55.81 19.96-101.44 52.66-137.22-5.3-12.92-22.82-64.99 5.04-135.54 0 0 42.94-13.73 140.67 52.4 40.79-11.34 84.58-17.02 128.04-17.21 43.44.19 87.22 5.87 128.04 17.21 97.68-66.13 140.56-52.4 140.56-52.4 28 70.55 10.5 122.62 5.2 135.54 32.77 35.78 52.57 81.41 52.57 137.22 0 196.28-119.72 239.63-233.48 252.31 18.35 15.79 34.69 46.85 34.69 94.45 0 68.27-.63 123.33-.63 140.09 0 13.73 9.15 29.88 35.2 24.64C877.49 929.4 1024 738 1024 512 1024 229.23 794.77 0 512 0z" />
							</svg>